<svg version="1.1" id="Layer_1" xmlns="http://www.w3.org/2000/svg" xmlns:xlink="http://www.w3.org/1999/xlink" x="0px" y="0px"
	 width="100%" viewBox="0 0 238 254" enable-background="new 0 0 238 254" xml:space="preserve">
<path fill="#000000" opacity="1.000000" stroke="none" 
	d="
M125.000000,255.000000 
	C83.333336,255.000000 42.166672,255.000000 1.000005,255.000000 
	C1.000004,170.333344 1.000004,85.666679 1.000002,1.000017 
	C80.333321,1.000011 159.666641,1.000011 238.999969,1.000006 
	C238.999985,85.666649 238.999985,170.333298 239.000000,254.999969 
	C201.166672,255.000000 163.333328,255.000000 125.000000,255.000000 
M94.875587,222.293961 
	C94.649147,221.186661 94.422699,220.079376 94.812416,218.808487 
	C96.445366,218.998383 98.124611,219.006012 99.703873,219.407227 
	C111.560669,222.419571 123.335434,225.781998 135.256241,228.508591 
	C151.419205,232.205444 167.756775,232.915268 184.146591,229.841049 
	C185.255646,229.633041 186.898483,229.548111 187.323456,228.831177 
	C192.334900,220.376846 197.501038,211.981949 201.874344,203.196991 
	C203.705307,199.518982 200.280746,198.917114 197.307526,199.147476 
	C193.841599,199.416016 190.367676,200.009995 186.913101,199.910645 
	C178.656830,199.673203 170.405258,199.184280 162.160660,198.658035 
	C155.562973,198.236923 148.978424,197.610184 142.387878,197.076797 
	C134.362411,196.427292 126.330368,195.844818 118.318748,195.054932 
	C117.241043,194.948685 115.429947,193.858475 115.380783,193.128143 
	C115.091431,188.830093 115.042572,184.489655 115.373871,180.199097 
	C115.436600,179.386734 117.509140,178.244720 118.761139,178.083282 
	C132.691833,176.287079 146.657990,174.763855 160.584366,172.936813 
	C169.357376,171.785873 178.079376,170.245972 187.312729,168.804291 
	C186.495941,163.643661 185.774048,158.922989 184.998703,154.211090 
	C181.401062,132.347809 175.348709,111.112137 166.943100,90.683296 
	C157.701797,68.223419 145.521896,47.293892 130.514999,28.120390 
	C125.324356,21.488586 119.843338,15.078525 114.323990,8.715469 
	C113.491852,7.756131 111.722794,7.609469 110.387131,7.086892 
	C109.916466,8.388409 109.077301,9.679176 109.038971,10.993304 
	C108.873894,16.652050 108.943817,22.317652 108.258797,28.510899 
	C108.186813,44.927258 108.103424,61.343597 108.080566,77.760025 
	C108.079552,78.488815 108.629913,79.218376 108.918823,80.777702 
	C108.650536,83.865051 108.382240,86.952393 108.009300,90.968857 
	C108.046242,102.285774 108.083183,113.602684 108.029907,125.446785 
	C108.021675,125.624886 108.013451,125.802979 107.240936,126.405479 
	C107.173828,138.722885 107.095856,151.040283 107.076630,163.357773 
	C107.075798,163.887466 107.616844,164.418015 107.957321,165.890747 
	C107.981682,173.544159 107.990311,181.197647 108.037346,188.850922 
	C108.059303,192.423752 106.800011,193.999878 102.851685,193.248016 
	C99.336807,192.578659 95.619034,193.000565 92.088669,192.382172 
	C79.746353,190.220245 67.441620,187.841614 55.131927,185.496384 
	C45.945770,183.746231 36.809212,181.700668 27.580675,180.223175 
	C23.106312,179.506805 22.036549,181.260040 24.068830,185.366364 
	C27.948021,193.204437 31.860565,201.037842 36.122704,208.670242 
	C38.823925,213.507431 42.174450,217.993027 49.098919,215.640594 
	C50.004654,216.088104 50.910385,216.535614 50.944839,216.934814 
	C37.918056,217.702240 25.341297,220.090805 13.855705,227.575592 
	C15.937720,228.853348 18.281319,229.949692 20.097202,229.375916 
	C33.481125,225.146942 46.931751,225.196014 60.308758,228.750076 
	C76.648598,233.091354 92.814217,238.084290 109.123100,242.547241 
	C127.025856,247.446320 144.986023,251.122849 163.884415,249.160751 
	C181.040237,247.379532 197.224396,243.248444 211.776215,233.958801 
	C216.781342,230.763580 220.996704,226.331192 225.572845,222.463974 
	C225.318680,221.908173 225.064514,221.352371 224.810364,220.796570 
	C223.681213,220.890320 222.335678,220.615280 221.454773,221.132141 
	C202.761337,232.100037 182.159424,236.172882 160.934998,236.740936 
	C152.278488,236.972626 143.438583,234.892334 134.874664,232.994888 
	C121.545151,230.041534 108.379982,226.346436 94.875587,222.293961 
M101.971733,135.117691 
	C102.321297,123.667564 102.705757,112.218369 103.011505,100.767075 
	C103.384064,86.813309 103.646759,72.856522 104.047752,58.903660 
	C104.200089,53.603218 104.730789,48.312332 104.827789,43.012310 
	C104.863037,41.086479 104.137703,39.146729 103.759392,37.213329 
	C97.784462,48.241314 93.022987,58.959919 88.134865,69.620468 
	C82.198334,82.567505 76.123901,95.451256 70.165131,108.388168 
	C61.088802,128.093491 52.117947,147.847610 42.976028,167.522339 
	C40.323723,173.230515 40.773937,174.366119 47.069817,174.959000 
	C64.043793,176.557434 81.022743,178.103180 97.994904,179.720383 
	C100.910751,179.998215 101.936279,178.527802 101.939354,175.939270 
	C101.944878,171.278961 101.903648,166.618576 101.970596,161.024719 
	C101.937981,152.702393 101.905365,144.380081 101.971733,135.117691 
z"/>
<path fill="#02304B" opacity="1.000000" stroke="none" 
	d="
M108.005226,125.981064 
	C108.013451,125.802979 108.021675,125.624886 108.240921,124.814682 
	C108.637352,117.062279 108.965317,109.941780 108.954666,102.821777 
	C108.948296,98.560692 108.412041,94.300392 108.113953,90.039742 
	C108.382240,86.952393 108.650536,83.865051 108.932610,79.897186 
	C108.940315,62.004700 108.934242,44.992729 108.928169,27.980757 
	C108.943817,22.317652 108.873894,16.652050 109.038971,10.993304 
	C109.077301,9.679176 109.916466,8.388409 110.387131,7.086890 
	C111.722794,7.609469 113.491852,7.756131 114.323990,8.715469 
	C119.843338,15.078525 125.324356,21.488586 130.514999,28.120390 
	C145.521896,47.293892 157.701797,68.223419 166.943100,90.683296 
	C175.348709,111.112137 181.401062,132.347809 184.998703,154.211090 
	C185.774048,158.922989 186.495941,163.643661 187.312729,168.804291 
	C178.079376,170.245972 169.357376,171.785873 160.584366,172.936813 
	C146.657990,174.763855 132.691833,176.287079 118.761139,178.083282 
	C117.509140,178.244720 115.436600,179.386734 115.373871,180.199097 
	C115.042572,184.489655 115.091431,188.830093 115.380783,193.128143 
	C115.429947,193.858475 117.241043,194.948685 118.318748,195.054932 
	C126.330368,195.844818 134.362411,196.427292 142.387878,197.076797 
	C148.978424,197.610184 155.562973,198.236923 162.160660,198.658035 
	C170.405258,199.184280 178.656830,199.673203 186.913101,199.910645 
	C190.367676,200.009995 193.841599,199.416016 197.307526,199.147476 
	C200.280746,198.917114 203.705307,199.518982 201.874344,203.196991 
	C197.501038,211.981949 192.334900,220.376846 187.323456,228.831177 
	C186.898483,229.548111 185.255646,229.633041 184.146591,229.841049 
	C167.756775,232.915268 151.419205,232.205444 135.256241,228.508591 
	C123.335434,225.781998 111.560669,222.419571 99.703873,219.407227 
	C98.124611,219.006012 96.445366,218.998383 94.305115,218.564850 
	C79.076889,214.174377 64.126617,213.083038 48.953899,214.955276 
	C42.174450,217.993027 38.823925,213.507431 36.122704,208.670242 
	C31.860565,201.037842 27.948021,193.204437 24.068830,185.366364 
	C22.036549,181.260040 23.106312,179.506805 27.580675,180.223175 
	C36.809212,181.700668 45.945770,183.746231 55.131927,185.496384 
	C67.441620,187.841614 79.746353,190.220245 92.088669,192.382172 
	C95.619034,193.000565 99.336807,192.578659 102.851685,193.248016 
	C106.800011,193.999878 108.059303,192.423752 108.037346,188.850922 
	C107.990311,181.197647 107.981682,173.544159 107.958847,164.953186 
	C107.975327,151.337433 107.990280,138.659241 108.005226,125.981064 
z"/>
<path fill="#02304B" opacity="1.000000" stroke="none" 
	d="
M101.881943,161.958221 
	C101.903648,166.618576 101.944878,171.278961 101.939354,175.939270 
	C101.936279,178.527802 100.910751,179.998215 97.994904,179.720383 
	C81.022743,178.103180 64.043793,176.557434 47.069817,174.959000 
	C40.773937,174.366119 40.323723,173.230515 42.976028,167.522339 
	C52.117947,147.847610 61.088802,128.093491 70.165131,108.388168 
	C76.123901,95.451256 82.198334,82.567505 88.134865,69.620468 
	C93.022987,58.959919 97.784462,48.241314 103.759392,37.213329 
	C104.137703,39.146729 104.863037,41.086479 104.827789,43.012310 
	C104.730789,48.312332 104.200089,53.603218 104.047752,58.903660 
	C103.646759,72.856522 103.384064,86.813309 103.011505,100.767075 
	C102.705757,112.218369 102.321297,123.667564 101.583710,135.842697 
	C101.100800,140.364868 100.837250,144.167236 100.953957,147.957886 
	C101.097801,152.629761 101.558296,157.291885 101.881943,161.958221 
z"/>
<path fill="#3A96BC" opacity="1.000000" stroke="none" 
	d="
M95.145157,222.965698 
	C108.379982,226.346436 121.545151,230.041534 134.874664,232.994888 
	C143.438583,234.892334 152.278488,236.972626 160.934998,236.740936 
	C182.159424,236.172882 202.761337,232.100037 221.454773,221.132141 
	C222.335678,220.615280 223.681213,220.890320 224.810364,220.796570 
	C225.064514,221.352371 225.318680,221.908173 225.572845,222.463974 
	C220.996704,226.331192 216.781342,230.763580 211.776215,233.958801 
	C197.224396,243.248444 181.040237,247.379532 163.884415,249.160751 
	C144.986023,251.122849 127.025856,247.446320 109.123100,242.547241 
	C92.814217,238.084290 76.648598,233.091354 60.308758,228.750076 
	C46.931751,225.196014 33.481125,225.146942 20.097202,229.375916 
	C18.281319,229.949692 15.937720,228.853348 13.855705,227.575592 
	C25.341297,220.090805 37.918056,217.702240 51.821030,217.071716 
	C66.846527,219.127640 80.995842,221.046661 95.145157,222.965698 
z"/>
<path fill="#E9EEF1" opacity="1.000000" stroke="none" 
	d="
M95.010376,222.629822 
	C80.995842,221.046661 66.846527,219.127640 52.256668,217.095856 
	C50.910385,216.535614 50.004654,216.088104 49.026409,215.297943 
	C64.126617,213.083038 79.076889,214.174377 93.997032,218.646652 
	C94.422699,220.079376 94.649147,221.186661 95.010376,222.629822 
z"/>
<path fill="#506071" opacity="1.000000" stroke="none" 
	d="
M108.593483,28.245827 
	C108.934242,44.992729 108.940315,62.004700 108.934921,79.482124 
	C108.629913,79.218376 108.079552,78.488815 108.080566,77.760025 
	C108.103424,61.343597 108.186813,44.927258 108.593483,28.245827 
z"/>
<path fill="#929DA3" opacity="1.000000" stroke="none" 
	d="
M107.623077,126.193268 
	C107.990280,138.659241 107.975327,151.337433 107.932922,164.481888 
	C107.616844,164.418015 107.075798,163.887466 107.076630,163.357773 
	C107.095856,151.040283 107.173828,138.722885 107.623077,126.193268 
z"/>
<path fill="#26455B" opacity="1.000000" stroke="none" 
	d="
M108.061630,90.504303 
	C108.412041,94.300392 108.948296,98.560692 108.954666,102.821777 
	C108.965317,109.941780 108.637352,117.062279 108.286026,124.551086 
	C108.083183,113.602684 108.046242,102.285774 108.061630,90.504303 
z"/>
<path fill="#ACAEB2" opacity="1.000000" stroke="none" 
	d="
M101.926270,161.491470 
	C101.558296,157.291885 101.097801,152.629761 100.953957,147.957886 
	C100.837250,144.167236 101.100800,140.364868 101.534218,136.312729 
	C101.905365,144.380081 101.937981,152.702393 101.926270,161.491470 
z"/>
</svg>